# xmcd CD database file
#
# Track frame offsets:
#	183
#	23283
#	48033
#	71358
#	92058
#	109533
#	139408
#	160558
#	181533
#	200270
#
# Disc length: 2958 seconds
#
# Revision: 1
# Processed by: cddbd v1.5.2PL0 Copyright (c) Steve Scherf et al.
# Submitted via: CDex 1.70beta2
#
DISCID=6a0b8c0a
DTITLE=Montecarlo Nights - Private Music - The Collection 1
DYEAR=1989
DGENRE=New Age
TTITLE0=Nona Hendryx - Women Who Fly
TTITLE1=Patrick O'Hearn - Riunion
TTITLE2=Tangerine Dream - Mothers Of Rain
TTITLE3=Yanni - The Rain Must Fall
TTITLE4=Suzanne Ciani - Neverland
TTITLE5=Andy Summers - A Piece Of Time
TTITLE6=Yanni - Swept Away
TTITLE7=Bill Gable - Go Ahead On Run
TTITLE8=David Van Tieghem - Flying Hearts
TTITLE9=Michael Colina - Shadow Of Urbano
EXTD=YEAR: 1989
EXTT0=
EXTT1=
EXTT2=
EXTT3=
EXTT4=
EXTT5=
EXTT6=
EXTT7=
EXTT8=
EXTT9=
PLAYORDER=
